<svg xmlns="http://www.w3.org/2000/svg" width="1302.392" height="1224.2"><defs><clipPath id="a"><path fill="none" d="M0 0h1321v149H0z"/></clipPath><clipPath id="b"><path fill="none" d="M0 0h1308v149H0z"/></clipPath></defs><g data-name="Group 29" fill="#585858"><g data-name="Repeat Grid 3" transform="rotate(23 29.093 142.978)" clip-path="url(#a)"><rect data-name="Rectangle 31" width="149" height="166" rx="10" transform="rotate(-90 74.5 74.5)" opacity=".32"/><rect data-name="Rectangle 31" width="149" height="166" rx="10" transform="rotate(-90 208.5 -59.5)" opacity=".32"/><rect data-name="Rectangle 31" width="149" height="166" rx="10" transform="rotate(-90 342.5 -193.5)" opacity=".32"/><rect data-name="Rectangle 31" width="149" height="166" rx="10" transform="rotate(-90 476.5 -327.5)" opacity=".32"/><rect data-name="Rectangle 31" width="149" height="166" rx="10" transform="rotate(-90 610.5 -461.5)" opacity=".32"/></g><g data-name="Repeat Grid 8" transform="rotate(-22 2810.528 456.033)" clip-path="url(#b)"><rect data-name="Rectangle 31" width="149" height="166" rx="10" transform="rotate(-90 74.5 74.5)" opacity=".32"/><rect data-name="Rectangle 31" width="149" height="166" rx="10" transform="rotate(-90 208.5 -59.5)" opacity=".32"/><rect data-name="Rectangle 31" width="149" height="166" rx="10" transform="rotate(-90 342.5 -193.5)" opacity=".32"/><rect data-name="Rectangle 31" width="149" height="166" rx="10" transform="rotate(-90 476.5 -327.5)" opacity=".32"/><rect data-name="Rectangle 31" width="149" height="166" rx="10" transform="rotate(-90 610.5 -461.5)" opacity=".32"/></g></g></svg>