<svg xmlns="http://www.w3.org/2000/svg" viewBox="0 0 2792.842 2137.109"><defs><clipPath id="a"><path fill="none" d="M0 0h2659v149H0z"/></clipPath></defs><g data-name="21321312" fill="#585858"><g data-name="Repeat Grid 3" transform="rotate(23 29.093 142.978)" clip-path="url(#a)"><rect data-name="Rectangle 31" width="149" height="166" rx="10" transform="rotate(-90 74.5 74.5)" opacity=".32"/><rect data-name="Rectangle 31" width="149" height="166" rx="10" transform="rotate(-90 208.5 -59.5)" opacity=".32"/><rect data-name="Rectangle 31" width="149" height="166" rx="10" transform="rotate(-90 342.5 -193.5)" opacity=".32"/><rect data-name="Rectangle 31" width="149" height="166" rx="10" transform="rotate(-90 476.5 -327.5)" opacity=".32"/><rect data-name="Rectangle 31" width="149" height="166" rx="10" transform="rotate(-90 610.5 -461.5)" opacity=".32"/><rect data-name="Rectangle 31" width="149" height="166" rx="10" transform="rotate(-90 744.5 -595.5)" opacity=".32"/><rect data-name="Rectangle 31" width="149" height="166" rx="10" transform="rotate(-90 878.5 -729.5)" opacity=".32"/><rect data-name="Rectangle 31" width="149" height="166" rx="10" transform="rotate(-90 1012.5 -863.5)" opacity=".32"/><rect data-name="Rectangle 31" width="149" height="166" rx="10" transform="rotate(-90 1146.5 -997.5)" opacity=".32"/><rect data-name="Rectangle 31" width="149" height="166" rx="10" transform="matrix(0 -1 1 0 2412 149)" opacity=".32"/></g><g data-name="Repeat Grid 8" transform="rotate(-23 5055.03 294.584)" clip-path="url(#a)"><rect data-name="Rectangle 31" width="149" height="166" rx="10" transform="rotate(-90 74.5 74.5)" opacity=".32"/><rect data-name="Rectangle 31" width="149" height="166" rx="10" transform="rotate(-90 208.5 -59.5)" opacity=".32"/><rect data-name="Rectangle 31" width="149" height="166" rx="10" transform="rotate(-90 342.5 -193.5)" opacity=".32"/><rect data-name="Rectangle 31" width="149" height="166" rx="10" transform="rotate(-90 476.5 -327.5)" opacity=".32"/><rect data-name="Rectangle 31" width="149" height="166" rx="10" transform="rotate(-90 610.5 -461.5)" opacity=".32"/><rect data-name="Rectangle 31" width="149" height="166" rx="10" transform="rotate(-90 744.5 -595.5)" opacity=".32"/><rect data-name="Rectangle 31" width="149" height="166" rx="10" transform="rotate(-90 878.5 -729.5)" opacity=".32"/><rect data-name="Rectangle 31" width="149" height="166" rx="10" transform="rotate(-90 1012.5 -863.5)" opacity=".32"/><rect data-name="Rectangle 31" width="149" height="166" rx="10" transform="rotate(-90 1146.5 -997.5)" opacity=".32"/><rect data-name="Rectangle 31" width="149" height="166" rx="10" transform="matrix(0 -1 1 0 2412 149)" opacity=".32"/></g></g></svg>