<svg xmlns="http://www.w3.org/2000/svg" width="974.879" height="974.879"><g data-name="Group 16" transform="translate(362 1424.49)" opacity=".42"><path data-name="Path 39" d="M125.44-1424.49c269.205 0 487.44 218.234 487.44 487.44S394.646-449.61 125.44-449.61-362-667.845-362-937.05s218.234-487.44 487.44-487.44z" fill="#515151"/><path data-name="Path 43" d="M345.056-813.852a96.417 96.417 0 1 1-96.417 96.417 96.417 96.417 0 0 1 96.417-96.417z" fill="#7d7d7d" opacity=".34"/><path data-name="Path 44" d="M130.797-717.435a96.417 96.417 0 1 1-96.417 96.417 96.417 96.417 0 0 1 96.417-96.417z" fill="#7d7d7d" opacity=".34"/><path data-name="Path 45" d="M-104.889-792.426a96.417 96.417 0 1 1-96.417 96.417 96.417 96.417 0 0 1 96.417-96.417z" fill="#7d7d7d" opacity=".34"/><path data-name="Path 46" d="M-201.305-1028.111a96.417 96.417 0 1 1-96.417 96.417 96.417 96.417 0 0 1 96.417-96.417z" fill="#ed4f34" opacity=".34"/><path data-name="Path 40" d="M109.371-1349.5a96.417 96.417 0 1 1-96.417 96.417 96.417 96.417 0 0 1 96.417-96.417z" fill="#7d7d7d" opacity=".34"/><path data-name="Path 41" d="M345.056-1263.796a96.417 96.417 0 1 1-96.417 96.417 96.417 96.417 0 0 1 96.417-96.417z" fill="#7d7d7d" opacity=".34"/><path data-name="Path 42" d="M441.472-1028.111a96.417 96.417 0 1 1-96.417 96.417 96.417 96.417 0 0 1 96.417-96.417z" fill="#7d7d7d" opacity=".34"/><path data-name="Path 47" d="M-126.315-1253.083a96.417 96.417 0 1 1-96.417 96.417 96.417 96.417 0 0 1 96.417-96.417z" fill="#7d7d7d" opacity=".34"/><ellipse data-name="Ellipse 24" cx="268" cy="284.5" rx="268" ry="284.5" transform="translate(-148 -1221.611)" fill="#7d7d7d" opacity=".34" style="mix-blend-mode:exclusion;isolation:isolate"/></g></svg>