<svg xmlns="http://www.w3.org/2000/svg" width="1478.137" height="1093.501"><g data-name="Group 30"><path data-name="Path 18" d="M231.89 578.355v-60.36L1477.637.749v1092z" fill="#ecac7c" stroke="#707070"/><g data-name="Group 15" transform="translate(53.467 2545.878)"><path data-name="Path 19" d="M-7.967-2120.113a45.5 45.5 0 1 1-45.5 45.5 45.5 45.5 0 0 1 45.5-45.5z" fill="#515151"/><path data-name="Path 28" d="M100.256-2138.558a54.723 54.723 0 1 1-54.723 54.723 54.723 54.723 0 0 1 54.723-54.723z" fill="#515151"/><path data-name="Path 20" d="M-9.467-2113.113a9 9 0 1 1-9 9 9 9 0 0 1 9-9z" fill="#ed4f34"/><path data-name="Path 30" d="M98.451-2130.139a10.824 10.824 0 1 1-10.824 10.824 10.824 10.824 0 0 1 10.824-10.824z" fill="#ed4f34" opacity=".44"/><path data-name="Path 21" d="M12.533-2105.113a9 9 0 1 1-9 9 9 9 0 0 1 9-9z" fill="#ed4f34"/><path data-name="Path 31" d="M124.91-2120.517a10.824 10.824 0 1 1-10.824 10.824 10.824 10.824 0 0 1 10.824-10.824z" fill="#ed4f34" opacity=".44"/><path data-name="Path 22" d="M21.533-2083.113a9 9 0 1 1-9 9 9 9 0 0 1 9-9z" fill="#ed4f34"/><path data-name="Path 32" d="M135.735-2094.058a10.824 10.824 0 1 1-10.824 10.824 10.824 10.824 0 0 1 10.824-10.824z" fill="#ed4f34" opacity=".44"/><path data-name="Path 23" d="M12.533-2063.113a9 9 0 1 1-9 9 9 9 0 0 1 9-9z" fill="#ed4f34"/><path data-name="Path 33" d="M124.91-2070.004a10.824 10.824 0 1 1-10.824 10.824 10.824 10.824 0 0 1 10.824-10.824z" fill="#ed4f34" opacity=".44"/><path data-name="Path 24" d="M-7.467-2054.113a9 9 0 1 1-9 9 9 9 0 0 1 9-9z" fill="#ed4f34"/><path data-name="Path 34" d="M100.856-2059.18a10.824 10.824 0 1 1-10.824 10.824 10.824 10.824 0 0 1 10.824-10.824z" fill="#ed4f34" opacity=".44"/><path data-name="Path 25" d="M-29.467-2061.113a9 9 0 1 1-9 9 9 9 0 0 1 9-9z" fill="#ed4f34"/><path data-name="Path 35" d="M74.397-2067.599a10.824 10.824 0 1 1-10.824 10.824 10.824 10.824 0 0 1 10.824-10.824z" fill="#ed4f34" opacity=".44"/><path data-name="Path 26" d="M-38.467-2083.113a9 9 0 1 1-9 9 9 9 0 0 1 9-9z" fill="#ed4f34"/><path data-name="Path 36" d="M63.573-2094.058a10.824 10.824 0 1 1-10.824 10.824 10.824 10.824 0 0 1 10.824-10.824z" fill="#ed4f34" opacity=".44"/><path data-name="Path 27" d="M-31.467-2104.113a9 9 0 1 1-9 9 9 9 0 0 1 9-9z" fill="#ed4f34"/><path data-name="Path 29" d="M71.992-2119.315a10.824 10.824 0 1 1-10.824 10.824 10.824 10.824 0 0 1 10.824-10.824z" fill="#ed4f34" opacity=".44"/><path data-name="Path 16" d="M-19.55-2014.194v-6.715a4.34 4.34 0 0 1 4.6-4.635c1.954 0 63.919-.539 63.919-.539s61.884.539 64.413.539 4.73 2.937 4.73 5.309v8.857h3.129v-2.816h11.576v2.816h5.319l40.046-16.582v59.757l-40.046-15.644h-5.319v2.19h-11.579v-2.19h-3.129s.212 34.065.212 36.868-3.142 4.743-6.175 4.743H57.092l1.13 5.631a33.862 33.862 0 0 1 4.449 4.89 17.828 17.828 0 0 1 3.146 5.677 23.8 23.8 0 0 1 1.381 5.9h2.186v9.9h-1.6v5.5l69.862 159.371 2.865 4.3-11.881-.084.59-3.2-69.347-159.772H49.424v168.916l1.993 4.192-11.767-.1 1.745-4.089v-168.916h-10.07l-69.753 158.666 1 4.507h-12.046a11.3 11.3 0 0 1 1.189-2.876 5.014 5.014 0 0 1 1.79-1.63l69.629-158.666v-6.4h-1.685v-9.606h2.176v-1.141l-20.376 2.236a8.182 8.182 0 0 1-1.938 2.865c-1.264 1.1-13.988 2.191-17.106 1.469s-4.3-5.851-2.022-7.789 14.493-3.286 17.665-2.848 3.4 2.343 3.4 2.343l21.74-2.865a31.127 31.127 0 0 1 2.935-6.092 23.8 23.8 0 0 1 4.149-4.649v-5.631s-34.9.7-46.568-.228c-1.8-.142-3.041-1.111-4.587-3.7-.87-1.77-.467-12.024-.467-12.024l-10.232 5.591s-1.361 3.565-3.565 4.731-5.882.356-6.539-2.187.33-4 2.52-5.331 5.834 0 5.834 0l11.983-7.13v-32.9h-15.957a1.826 1.826 0 0 1-1.86 2.089 2.213 2.213 0 0 1-2.209-2.089l-.249-18.772a2.254 2.254 0 0 1 2.194-1.526 2.128 2.128 0 0 1 2.124 1.526z" fill="#515151"/><ellipse data-name="Ellipse 4" cx="25" cy="26.5" rx="25" ry="26.5" transform="translate(-33.467 -2101.113)" fill="#ecac7c" opacity=".35" style="mix-blend-mode:color-burn;isolation:isolate"/><ellipse data-name="Ellipse 23" cx="30" cy="32" rx="30" ry="32" transform="translate(69.533 -2116.113)" fill="#ecac7c" opacity=".35" style="mix-blend-mode:color-burn;isolation:isolate"/></g></g></svg>