<svg xmlns="http://www.w3.org/2000/svg" width="302" height="247.886"><defs><clipPath id="a"><path fill="none" d="M0 0h23v197.267H0z"/></clipPath></defs><g data-name="312321+"><path data-name="Path 48" d="M0 0h302v206h-68.269v41.886L168 206H0z" fill="#313131" opacity=".98"/><g data-name="Repeat Grid 1" transform="translate(18.234 3.824)" opacity=".52" clip-path="url(#a)" fill="#fff"><rect data-name="Rectangle 31" width="17" height="19" rx="2" transform="translate(0 6)"/><rect data-name="Rectangle 31" width="17" height="19" rx="2" transform="translate(0 47)"/><rect data-name="Rectangle 31" width="17" height="19" rx="2" transform="translate(0 88)"/><rect data-name="Rectangle 31" width="17" height="19" rx="2" transform="translate(0 129)"/><rect data-name="Rectangle 31" width="17" height="19" rx="2" transform="translate(0 170)"/></g><g data-name="Repeat Grid 2" transform="translate(270.234 3.824)" opacity=".52" clip-path="url(#a)" fill="#fff"><rect data-name="Rectangle 31" width="17" height="19" rx="2" transform="translate(0 6)"/><rect data-name="Rectangle 31" width="17" height="19" rx="2" transform="translate(0 47)"/><rect data-name="Rectangle 31" width="17" height="19" rx="2" transform="translate(0 88)"/><rect data-name="Rectangle 31" width="17" height="19" rx="2" transform="translate(0 129)"/><rect data-name="Rectangle 31" width="17" height="19" rx="2" transform="translate(0 170)"/></g></g></svg>