<svg xmlns="http://www.w3.org/2000/svg" xmlns:xlink="http://www.w3.org/1999/xlink" viewBox="0 0 1302.392 1224.2">
  <defs>
    <clipPath id="clip-path">
      <rect width="1321" height="149" fill="none"/>
    </clipPath>
    <clipPath id="clip-path-2">
      <rect width="1308" height="149" fill="none"/>
    </clipPath>
  </defs>
  <g id="Group_29" data-name="Group 29" transform="translate(86.958 -1036.685)">
    <g id="Repeat_Grid_3" data-name="Repeat Grid 3" transform="matrix(0.921, 0.391, -0.391, 0.921, -28.739, 1036.685)" clip-path="url(#clip-path)">
      <g transform="translate(-52.01 -279.351)">
        <rect id="Rectangle_31" data-name="Rectangle 31" width="149" height="166" rx="10" transform="translate(52.01 428.351) rotate(-90)" fill="#585858" opacity="0.32"/>
      </g>
      <g transform="translate(215.99 -279.351)">
        <rect id="Rectangle_31-2" data-name="Rectangle 31" width="149" height="166" rx="10" transform="translate(52.01 428.351) rotate(-90)" fill="#585858" opacity="0.32"/>
      </g>
      <g transform="translate(483.99 -279.351)">
        <rect id="Rectangle_31-3" data-name="Rectangle 31" width="149" height="166" rx="10" transform="translate(52.01 428.351) rotate(-90)" fill="#585858" opacity="0.32"/>
      </g>
      <g transform="translate(751.99 -279.351)">
        <rect id="Rectangle_31-4" data-name="Rectangle 31" width="149" height="166" rx="10" transform="translate(52.01 428.351) rotate(-90)" fill="#585858" opacity="0.32"/>
      </g>
      <g transform="translate(1019.99 -279.351)">
        <rect id="Rectangle_31-5" data-name="Rectangle 31" width="149" height="166" rx="10" transform="translate(52.01 428.351) rotate(-90)" fill="#585858" opacity="0.32"/>
      </g>
    </g>
    <g id="Repeat_Grid_8" data-name="Repeat Grid 8" transform="translate(-53.139 2122.734) rotate(-22)" clip-path="url(#clip-path-2)">
      <g transform="translate(-52.01 -279.351)">
        <rect id="Rectangle_31-6" data-name="Rectangle 31" width="149" height="166" rx="10" transform="translate(52.01 428.351) rotate(-90)" fill="#585858" opacity="0.32"/>
      </g>
      <g transform="translate(215.99 -279.351)">
        <rect id="Rectangle_31-7" data-name="Rectangle 31" width="149" height="166" rx="10" transform="translate(52.01 428.351) rotate(-90)" fill="#585858" opacity="0.32"/>
      </g>
      <g transform="translate(483.99 -279.351)">
        <rect id="Rectangle_31-8" data-name="Rectangle 31" width="149" height="166" rx="10" transform="translate(52.01 428.351) rotate(-90)" fill="#585858" opacity="0.32"/>
      </g>
      <g transform="translate(751.99 -279.351)">
        <rect id="Rectangle_31-9" data-name="Rectangle 31" width="149" height="166" rx="10" transform="translate(52.01 428.351) rotate(-90)" fill="#585858" opacity="0.32"/>
      </g>
      <g transform="translate(1019.99 -279.351)">
        <rect id="Rectangle_31-10" data-name="Rectangle 31" width="149" height="166" rx="10" transform="translate(52.01 428.351) rotate(-90)" fill="#585858" opacity="0.32"/>
      </g>
    </g>
  </g>
</svg>
