<svg xmlns="http://www.w3.org/2000/svg" xmlns:xlink="http://www.w3.org/1999/xlink" viewBox="0 0 2792.842 2137.109">
  <defs>
    <clipPath id="clip-path">
      <rect width="2659" height="149" fill="none"/>
    </clipPath>
  </defs>
  <g id="_21321312" data-name="21321312" transform="translate(331.958 -514.685)">
    <g id="Repeat_Grid_3" data-name="Repeat Grid 3" transform="matrix(0.921, 0.391, -0.391, 0.921, -273.739, 514.685)" clip-path="url(#clip-path)">
      <g transform="translate(-52.01 -279.351)">
        <rect id="Rectangle_31" data-name="Rectangle 31" width="149" height="166" rx="10" transform="translate(52.01 428.351) rotate(-90)" fill="#585858" opacity="0.32"/>
      </g>
      <g transform="translate(215.99 -279.351)">
        <rect id="Rectangle_31-2" data-name="Rectangle 31" width="149" height="166" rx="10" transform="translate(52.01 428.351) rotate(-90)" fill="#585858" opacity="0.32"/>
      </g>
      <g transform="translate(483.99 -279.351)">
        <rect id="Rectangle_31-3" data-name="Rectangle 31" width="149" height="166" rx="10" transform="translate(52.01 428.351) rotate(-90)" fill="#585858" opacity="0.32"/>
      </g>
      <g transform="translate(751.99 -279.351)">
        <rect id="Rectangle_31-4" data-name="Rectangle 31" width="149" height="166" rx="10" transform="translate(52.01 428.351) rotate(-90)" fill="#585858" opacity="0.32"/>
      </g>
      <g transform="translate(1019.99 -279.351)">
        <rect id="Rectangle_31-5" data-name="Rectangle 31" width="149" height="166" rx="10" transform="translate(52.01 428.351) rotate(-90)" fill="#585858" opacity="0.32"/>
      </g>
      <g transform="translate(1287.99 -279.351)">
        <rect id="Rectangle_31-6" data-name="Rectangle 31" width="149" height="166" rx="10" transform="translate(52.01 428.351) rotate(-90)" fill="#585858" opacity="0.32"/>
      </g>
      <g transform="translate(1555.99 -279.351)">
        <rect id="Rectangle_31-7" data-name="Rectangle 31" width="149" height="166" rx="10" transform="translate(52.01 428.351) rotate(-90)" fill="#585858" opacity="0.32"/>
      </g>
      <g transform="translate(1823.99 -279.351)">
        <rect id="Rectangle_31-8" data-name="Rectangle 31" width="149" height="166" rx="10" transform="translate(52.01 428.351) rotate(-90)" fill="#585858" opacity="0.32"/>
      </g>
      <g transform="translate(2091.99 -279.351)">
        <rect id="Rectangle_31-9" data-name="Rectangle 31" width="149" height="166" rx="10" transform="translate(52.01 428.351) rotate(-90)" fill="#585858" opacity="0.32"/>
      </g>
      <g transform="translate(2359.99 -279.351)">
        <rect id="Rectangle_31-10" data-name="Rectangle 31" width="149" height="166" rx="10" transform="translate(52.01 428.351) rotate(-90)" fill="#585858" opacity="0.32"/>
      </g>
    </g>
    <g id="Repeat_Grid_8" data-name="Repeat Grid 8" transform="matrix(0.921, -0.391, 0.391, 0.921, -44.958, 2514.639)" clip-path="url(#clip-path)">
      <g transform="translate(-52.01 -279.351)">
        <rect id="Rectangle_31-11" data-name="Rectangle 31" width="149" height="166" rx="10" transform="translate(52.01 428.351) rotate(-90)" fill="#585858" opacity="0.32"/>
      </g>
      <g transform="translate(215.99 -279.351)">
        <rect id="Rectangle_31-12" data-name="Rectangle 31" width="149" height="166" rx="10" transform="translate(52.01 428.351) rotate(-90)" fill="#585858" opacity="0.32"/>
      </g>
      <g transform="translate(483.99 -279.351)">
        <rect id="Rectangle_31-13" data-name="Rectangle 31" width="149" height="166" rx="10" transform="translate(52.01 428.351) rotate(-90)" fill="#585858" opacity="0.32"/>
      </g>
      <g transform="translate(751.99 -279.351)">
        <rect id="Rectangle_31-14" data-name="Rectangle 31" width="149" height="166" rx="10" transform="translate(52.01 428.351) rotate(-90)" fill="#585858" opacity="0.32"/>
      </g>
      <g transform="translate(1019.99 -279.351)">
        <rect id="Rectangle_31-15" data-name="Rectangle 31" width="149" height="166" rx="10" transform="translate(52.01 428.351) rotate(-90)" fill="#585858" opacity="0.32"/>
      </g>
      <g transform="translate(1287.99 -279.351)">
        <rect id="Rectangle_31-16" data-name="Rectangle 31" width="149" height="166" rx="10" transform="translate(52.01 428.351) rotate(-90)" fill="#585858" opacity="0.32"/>
      </g>
      <g transform="translate(1555.99 -279.351)">
        <rect id="Rectangle_31-17" data-name="Rectangle 31" width="149" height="166" rx="10" transform="translate(52.01 428.351) rotate(-90)" fill="#585858" opacity="0.32"/>
      </g>
      <g transform="translate(1823.99 -279.351)">
        <rect id="Rectangle_31-18" data-name="Rectangle 31" width="149" height="166" rx="10" transform="translate(52.01 428.351) rotate(-90)" fill="#585858" opacity="0.32"/>
      </g>
      <g transform="translate(2091.99 -279.351)">
        <rect id="Rectangle_31-19" data-name="Rectangle 31" width="149" height="166" rx="10" transform="translate(52.01 428.351) rotate(-90)" fill="#585858" opacity="0.32"/>
      </g>
      <g transform="translate(2359.99 -279.351)">
        <rect id="Rectangle_31-20" data-name="Rectangle 31" width="149" height="166" rx="10" transform="translate(52.01 428.351) rotate(-90)" fill="#585858" opacity="0.32"/>
      </g>
    </g>
  </g>
</svg>
