<svg xmlns="http://www.w3.org/2000/svg" width="1478.137" height="1093.501" viewBox="0 0 1478.137 1093.501">
  <g id="Group_30" data-name="Group 30" transform="translate(-264 -77.235)">
    <path id="Path_18" data-name="Path 18" d="M-1922.11-768.41v-60.36l1245.747-517.246v1092Z" transform="translate(2418 1424)" fill="#ecac7c" stroke="#707070" stroke-width="1"/>
    <g id="Group_15" data-name="Group 15" transform="translate(317.467 2623.113)">
      <path id="Path_19" data-name="Path 19" d="M45.5,0A45.5,45.5,0,1,1,0,45.5,45.5,45.5,0,0,1,45.5,0Z" transform="translate(-53.467 -2120.113)" fill="#515151"/>
      <path id="Path_28" data-name="Path 28" d="M54.723,0A54.723,54.723,0,1,1,0,54.723,54.723,54.723,0,0,1,54.723,0Z" transform="translate(45.533 -2138.558)" fill="#515151"/>
      <path id="Path_20" data-name="Path 20" d="M9,0A9,9,0,1,1,0,9,9,9,0,0,1,9,0Z" transform="translate(-18.467 -2113.113)" fill="#ed4f34"/>
      <path id="Path_30" data-name="Path 30" d="M10.824,0A10.824,10.824,0,1,1,0,10.824,10.824,10.824,0,0,1,10.824,0Z" transform="translate(87.627 -2130.139)" fill="#ed4f34" opacity="0.44"/>
      <path id="Path_21" data-name="Path 21" d="M9,0A9,9,0,1,1,0,9,9,9,0,0,1,9,0Z" transform="translate(3.533 -2105.113)" fill="#ed4f34"/>
      <path id="Path_31" data-name="Path 31" d="M10.824,0A10.824,10.824,0,1,1,0,10.824,10.824,10.824,0,0,1,10.824,0Z" transform="translate(114.086 -2120.517)" fill="#ed4f34" opacity="0.44"/>
      <path id="Path_22" data-name="Path 22" d="M9,0A9,9,0,1,1,0,9,9,9,0,0,1,9,0Z" transform="translate(12.533 -2083.113)" fill="#ed4f34"/>
      <path id="Path_32" data-name="Path 32" d="M10.824,0A10.824,10.824,0,1,1,0,10.824,10.824,10.824,0,0,1,10.824,0Z" transform="translate(124.911 -2094.058)" fill="#ed4f34" opacity="0.44"/>
      <path id="Path_23" data-name="Path 23" d="M9,0A9,9,0,1,1,0,9,9,9,0,0,1,9,0Z" transform="translate(3.533 -2063.113)" fill="#ed4f34"/>
      <path id="Path_33" data-name="Path 33" d="M10.824,0A10.824,10.824,0,1,1,0,10.824,10.824,10.824,0,0,1,10.824,0Z" transform="translate(114.086 -2070.004)" fill="#ed4f34" opacity="0.44"/>
      <path id="Path_24" data-name="Path 24" d="M9,0A9,9,0,1,1,0,9,9,9,0,0,1,9,0Z" transform="translate(-16.467 -2054.113)" fill="#ed4f34"/>
      <path id="Path_34" data-name="Path 34" d="M10.824,0A10.824,10.824,0,1,1,0,10.824,10.824,10.824,0,0,1,10.824,0Z" transform="translate(90.032 -2059.18)" fill="#ed4f34" opacity="0.44"/>
      <path id="Path_25" data-name="Path 25" d="M9,0A9,9,0,1,1,0,9,9,9,0,0,1,9,0Z" transform="translate(-38.467 -2061.113)" fill="#ed4f34"/>
      <path id="Path_35" data-name="Path 35" d="M10.824,0A10.824,10.824,0,1,1,0,10.824,10.824,10.824,0,0,1,10.824,0Z" transform="translate(63.573 -2067.599)" fill="#ed4f34" opacity="0.44"/>
      <path id="Path_26" data-name="Path 26" d="M9,0A9,9,0,1,1,0,9,9,9,0,0,1,9,0Z" transform="translate(-47.467 -2083.113)" fill="#ed4f34"/>
      <path id="Path_36" data-name="Path 36" d="M10.824,0A10.824,10.824,0,1,1,0,10.824,10.824,10.824,0,0,1,10.824,0Z" transform="translate(52.749 -2094.058)" fill="#ed4f34" opacity="0.44"/>
      <path id="Path_27" data-name="Path 27" d="M9,0A9,9,0,1,1,0,9,9,9,0,0,1,9,0Z" transform="translate(-40.467 -2104.113)" fill="#ed4f34"/>
      <path id="Path_29" data-name="Path 29" d="M10.824,0A10.824,10.824,0,1,1,0,10.824,10.824,10.824,0,0,1,10.824,0Z" transform="translate(61.168 -2119.315)" fill="#ed4f34" opacity="0.44"/>
      <path id="Path_16" data-name="Path 16" d="M-17.367-1946.079v-6.715a4.34,4.34,0,0,1,4.6-4.635c1.954,0,63.919-.539,63.919-.539s61.884.539,64.413.539,4.73,2.937,4.73,5.309v8.857h3.129v-2.816H135v2.816h5.319l40.046-16.582v59.757l-40.046-15.644H135v2.19H123.421v-2.19h-3.129s.212,34.065.212,36.868-3.142,4.743-6.175,4.743H59.275l1.13,5.631a33.862,33.862,0,0,1,4.449,4.89A17.828,17.828,0,0,1,68-1857.923a23.8,23.8,0,0,1,1.381,5.9h2.186v9.9h-1.6v5.5l69.862,159.371,2.865,4.3-11.881-.084.59-3.2L62.056-1836.008H51.607v168.916L53.6-1662.9l-11.767-.1,1.745-4.089v-168.916H33.508l-69.753,158.666,1,4.507H-47.291a11.3,11.3,0,0,1,1.189-2.876,5.014,5.014,0,0,1,1.79-1.63l69.629-158.666v-6.4H23.632v-9.606h2.176v-1.141l-20.376,2.236a8.182,8.182,0,0,1-1.938,2.865c-1.264,1.1-13.988,2.191-17.106,1.469s-4.3-5.851-2.022-7.789,14.493-3.286,17.665-2.848,3.4,2.343,3.4,2.343l21.74-2.865a31.127,31.127,0,0,1,2.935-6.092,23.8,23.8,0,0,1,4.149-4.649v-5.631s-34.9.7-46.568-.228c-1.8-.142-3.041-1.111-4.587-3.7-.87-1.77-.467-12.024-.467-12.024l-10.232,5.591s-1.361,3.565-3.565,4.731-5.882.356-6.539-2.187.33-4,2.52-5.331,5.834,0,5.834,0l11.983-7.13v-32.9H-33.323a1.826,1.826,0,0,1-1.86,2.089,2.213,2.213,0,0,1-2.209-2.089l-.249-18.772a2.254,2.254,0,0,1,2.194-1.526,2.128,2.128,0,0,1,2.124,1.526Z" transform="translate(-2.183 -68.115)" fill="#515151"/>
      <ellipse id="Ellipse_4" data-name="Ellipse 4" cx="25" cy="26.5" rx="25" ry="26.5" transform="translate(-33.467 -2101.113)" fill="#ecac7c" opacity="0.35" style="mix-blend-mode: color-burn;isolation: isolate"/>
      <ellipse id="Ellipse_23" data-name="Ellipse 23" cx="30" cy="32" rx="30" ry="32" transform="translate(69.533 -2116.113)" fill="#ecac7c" opacity="0.35" style="mix-blend-mode: color-burn;isolation: isolate"/>
    </g>
  </g>
</svg>
