<svg xmlns="http://www.w3.org/2000/svg" width="974.879" height="974.879" viewBox="0 0 974.879 974.879">
  <g id="Group_16" data-name="Group 16" transform="translate(362 1424.49)" opacity="0.42">
    <path id="Path_39" data-name="Path 39" d="M487.44,0c269.205,0,487.44,218.234,487.44,487.44s-218.234,487.44-487.44,487.44S0,756.645,0,487.44,218.234,0,487.44,0Z" transform="translate(-362 -1424.49)" fill="#515151"/>
    <path id="Path_43" data-name="Path 43" d="M96.417,0A96.417,96.417,0,1,1,0,96.417,96.417,96.417,0,0,1,96.417,0Z" transform="translate(248.639 -813.852)" fill="#7d7d7d" opacity="0.34"/>
    <path id="Path_44" data-name="Path 44" d="M96.417,0A96.417,96.417,0,1,1,0,96.417,96.417,96.417,0,0,1,96.417,0Z" transform="translate(34.38 -717.435)" fill="#7d7d7d" opacity="0.34"/>
    <path id="Path_45" data-name="Path 45" d="M96.417,0A96.417,96.417,0,1,1,0,96.417,96.417,96.417,0,0,1,96.417,0Z" transform="translate(-201.306 -792.426)" fill="#7d7d7d" opacity="0.34"/>
    <path id="Path_46" data-name="Path 46" d="M96.417,0A96.417,96.417,0,1,1,0,96.417,96.417,96.417,0,0,1,96.417,0Z" transform="translate(-297.722 -1028.111)" fill="#ed4f34" opacity="0.34"/>
    <path id="Path_40" data-name="Path 40" d="M96.417,0A96.417,96.417,0,1,1,0,96.417,96.417,96.417,0,0,1,96.417,0Z" transform="translate(12.954 -1349.5)" fill="#7d7d7d" opacity="0.34"/>
    <path id="Path_41" data-name="Path 41" d="M96.417,0A96.417,96.417,0,1,1,0,96.417,96.417,96.417,0,0,1,96.417,0Z" transform="translate(248.639 -1263.796)" fill="#7d7d7d" opacity="0.34"/>
    <path id="Path_42" data-name="Path 42" d="M96.417,0A96.417,96.417,0,1,1,0,96.417,96.417,96.417,0,0,1,96.417,0Z" transform="translate(345.055 -1028.111)" fill="#7d7d7d" opacity="0.34"/>
    <path id="Path_47" data-name="Path 47" d="M96.417,0A96.417,96.417,0,1,1,0,96.417,96.417,96.417,0,0,1,96.417,0Z" transform="translate(-222.732 -1253.083)" fill="#7d7d7d" opacity="0.34"/>
    <ellipse id="Ellipse_24" data-name="Ellipse 24" cx="268" cy="284.5" rx="268" ry="284.5" transform="translate(-148 -1221.611)" fill="#7d7d7d" opacity="0.34" style="mix-blend-mode: exclusion;isolation: isolate"/>
  </g>
</svg>
