<svg xmlns="http://www.w3.org/2000/svg" xmlns:xlink="http://www.w3.org/1999/xlink" width="40" height="483.267" viewBox="0 0 40 483.267">
  <defs>
    <clipPath id="clip-path">
      <rect width="40" height="483.267" fill="none"/>
    </clipPath>
  </defs>
  <g id="Repeat_Grid_7" data-name="Repeat Grid 7" opacity="0.52" clip-path="url(#clip-path)">
    <g transform="translate(-1146.234 -430.824)">
      <rect id="Rectangle_31" data-name="Rectangle 31" width="35" height="31" rx="2" transform="translate(1146.234 436.824)" fill="#fff"/>
    </g>
    <g transform="translate(-1146.234 -369.824)">
      <rect id="Rectangle_31-2" data-name="Rectangle 31" width="35" height="31" rx="2" transform="translate(1146.234 436.824)" fill="#fff"/>
    </g>
    <g transform="translate(-1146.234 -308.824)">
      <rect id="Rectangle_31-3" data-name="Rectangle 31" width="35" height="31" rx="2" transform="translate(1146.234 436.824)" fill="#fff"/>
    </g>
    <g transform="translate(-1146.234 -247.824)">
      <rect id="Rectangle_31-4" data-name="Rectangle 31" width="35" height="31" rx="2" transform="translate(1146.234 436.824)" fill="#fff"/>
    </g>
    <g transform="translate(-1146.234 -186.824)">
      <rect id="Rectangle_31-5" data-name="Rectangle 31" width="35" height="31" rx="2" transform="translate(1146.234 436.824)" fill="#fff"/>
    </g>
    <g transform="translate(-1146.234 -125.824)">
      <rect id="Rectangle_31-6" data-name="Rectangle 31" width="35" height="31" rx="2" transform="translate(1146.234 436.824)" fill="#fff"/>
    </g>
    <g transform="translate(-1146.234 -64.824)">
      <rect id="Rectangle_31-7" data-name="Rectangle 31" width="35" height="31" rx="2" transform="translate(1146.234 436.824)" fill="#fff"/>
    </g>
    <g transform="translate(-1146.234 -3.824)">
      <rect id="Rectangle_31-8" data-name="Rectangle 31" width="35" height="31" rx="2" transform="translate(1146.234 436.824)" fill="#fff"/>
    </g>
  </g>
</svg>
